<svg width="188" height="1023" viewBox="0 0 188 1023" fill="none" xmlns="http://www.w3.org/2000/svg">
<path d="M92.4009 538.037C94.3574 535.184 98.5505 535.132 100.577 537.936L139.517 591.816C141.905 595.119 139.548 599.738 135.472 599.744L59.5084 599.858C55.4818 599.864 53.1001 595.351 55.3772 592.03L92.4009 538.037Z" fill="black"/>
<path d="M49.0555 852.278L137.5 853.778L134.992 927.78L49.0555 927.278L49.0555 852.278Z" fill="#0F451B"/>
<path d="M51.052 847.999L135.697 848.501L135.248 926.5L50.603 925.998L51.052 847.999Z" fill="url(#paint0_linear_3_50)"/>
<rect width="85.6302" height="27.0063" transform="matrix(0.999982 0.00593392 -0.00575685 0.999983 49.7044 927)" fill="#0F1C18" fill-opacity="0.6"/>
<path d="M167.155 893.497C167.622 959.493 155.068 1013.09 139.115 1013.2C123.163 1013.32 109.852 959.915 109.385 893.918C108.919 827.922 121.472 774.327 137.425 774.211C153.377 774.094 166.688 827.501 167.155 893.497Z" fill="url(#paint1_linear_3_50)"/>
<path d="M167.155 893.497C167.622 959.493 155.068 1013.09 139.115 1013.2C123.163 1013.32 109.852 959.915 109.385 893.918C108.919 827.922 121.472 774.327 137.425 774.211C153.377 774.094 166.688 827.501 167.155 893.497Z" fill="url(#paint2_linear_3_50)"/>
<path d="M78.6145 893.497C79.0814 959.493 66.5279 1013.09 50.5753 1013.2C34.6228 1013.32 21.3123 959.915 20.8454 893.918C20.3785 827.922 32.9321 774.327 48.8846 774.211C64.8371 774.094 78.1476 827.501 78.6145 893.497Z" fill="url(#paint3_linear_3_50)"/>
<path d="M78.6145 893.497C79.0814 959.493 66.5279 1013.09 50.5753 1013.2C34.6228 1013.32 21.3123 959.915 20.8454 893.918C20.3785 827.922 32.9321 774.327 48.8846 774.211C64.8371 774.094 78.1476 827.501 78.6145 893.497Z" fill="url(#paint4_linear_3_50)"/>
<ellipse cx="97" cy="732" rx="69" ry="179" fill="url(#paint5_linear_3_50)"/>
<path d="M114.951 759.493C114.976 762 114.439 764.259 113.339 766.27C112.239 768.281 110.695 769.857 108.706 770.997C106.718 772.164 104.457 772.76 101.924 772.785C100.137 772.803 98.5477 772.526 97.1552 771.953C95.7627 771.38 94.6745 770.565 93.8904 769.506C93.1067 768.474 92.7082 767.304 92.6951 765.998C92.68 764.505 93.1618 763.353 94.1404 762.543C95.1192 761.76 96.4212 761.293 98.0465 761.144C97.3225 760.751 96.7844 760.276 96.4321 759.72C96.0801 759.19 95.8999 758.512 95.8916 757.685C95.8798 756.512 96.2034 755.549 96.8625 754.795C97.5217 754.042 98.4512 753.659 99.6511 753.647C100.691 753.637 101.467 753.909 101.979 754.464C102.492 755.045 102.847 755.868 103.044 756.933C103.215 758.025 103.308 759.237 103.321 760.571C104.494 760.559 105.107 760.499 105.159 760.392C105.238 760.258 105.275 759.938 105.27 759.431C105.261 758.551 105.198 757.618 105.081 756.633C104.965 755.674 104.893 755.101 104.864 754.915C105.822 754.692 106.848 754.575 107.941 754.564C108.416 756.719 108.661 758.583 108.677 760.157C108.691 761.57 108.475 762.625 108.029 763.323C107.583 764.048 107.001 764.52 106.283 764.741C105.565 764.962 104.673 765.077 103.606 765.088C103.073 765.093 102.486 765.073 101.846 765.026C101.232 765.005 100.779 764.996 100.485 764.999C99.6846 764.927 98.9376 764.895 98.2443 764.902C96.5377 764.919 95.6897 765.448 95.7001 766.488C95.7098 767.447 96.3172 768.175 97.5222 768.669C98.7542 769.19 100.21 769.442 101.89 769.425C103.89 769.405 105.672 768.961 107.237 768.092C108.802 767.222 110.016 766.037 110.881 764.535C111.746 763.033 112.169 761.362 112.151 759.522C112.132 757.682 111.675 756.006 110.78 754.495C109.885 752.984 108.673 751.796 107.144 750.932C105.642 750.067 103.971 749.643 102.131 749.662C99.0913 749.693 96.6734 750.57 94.8773 752.295C93.0815 754.047 92.1992 756.469 92.2303 759.562C92.2402 760.549 92.3575 761.601 92.5821 762.719L90.0282 763.344C89.641 761.962 89.4417 760.71 89.4304 759.59C89.403 756.87 89.9127 754.519 90.9595 752.535C91.9796 750.551 93.4442 749.016 95.3534 747.93C97.2895 746.871 99.5375 746.328 102.097 746.302C104.497 746.278 106.663 746.83 108.594 747.957C110.553 749.111 112.089 750.695 113.202 752.711C114.343 754.726 114.926 756.987 114.951 759.493ZM98.9067 759.175C98.9116 759.655 99.0097 760.134 99.2012 760.612L101.121 760.593L101.119 760.393C101.106 759.086 101.032 758.367 100.897 758.235C100.735 758.05 100.441 757.959 100.015 757.964C99.5879 757.968 99.2956 758.064 99.1375 758.253C98.9796 758.467 98.9027 758.775 98.9067 759.175ZM117.016 793.782L92.7371 794.026L92.6803 788.386L95.7546 787.795C94.7092 787.272 93.8747 786.494 93.2509 785.46C92.6272 784.427 92.3087 783.256 92.2956 781.95C92.2746 779.87 93.0045 778.196 94.4851 776.927C95.966 775.686 98.1998 775.05 101.186 775.02C103.453 774.997 105.322 775.245 106.794 775.764C108.266 776.282 109.326 776.898 109.973 777.612C110.377 778.061 110.72 778.978 111.001 780.361C111.281 781.772 111.427 783.024 111.438 784.117C111.448 785.077 111.365 786.065 111.188 787.08C112.467 786.987 113.173 786.94 113.307 786.939L116.667 786.905L117.016 793.782ZM97.6855 784.896C97.6927 785.616 97.8202 786.361 98.068 787.132L106.748 787.045C106.846 786.27 106.891 785.416 106.882 784.483C106.874 783.683 106.802 783.177 106.667 782.965C106.45 782.674 105.835 782.44 104.819 782.264C103.831 782.114 102.79 782.044 101.697 782.055C100.071 782.072 98.993 782.322 98.4645 782.808C97.9363 783.32 97.6766 784.016 97.6855 784.896ZM111.354 815.521L92.9553 815.706L92.8993 810.147L95.9715 809.356C93.6323 807.459 92.4493 805.178 92.4225 802.511C92.4128 801.551 92.537 800.643 92.7951 799.787C93.0534 798.958 93.4338 798.327 93.9361 797.896C94.227 797.653 94.9584 797.459 96.1304 797.314C97.3026 797.195 99.0886 797.124 101.488 797.1L111.168 797.002L111.237 803.842L101.637 803.938C101.104 803.944 100.477 803.963 99.7578 803.997C99.0381 804.031 98.5856 804.116 98.4003 804.251C98.1355 804.44 98.0075 804.975 98.0164 805.855L98.0628 806.495C98.097 807.241 98.2781 808.012 98.6062 808.809L111.286 808.682L111.354 815.521ZM97.6286 834.9L93.1489 834.945L92.9826 818.426L97.5824 818.38L107.111 827.164L107.024 818.525L111.384 818.481L111.546 834.56L106.986 834.606L97.5377 825.861L97.6286 834.9ZM113.891 841.009C113.882 840.102 114.181 839.312 114.787 838.639C115.394 837.993 116.124 837.666 116.977 837.657C117.831 837.649 118.567 837.961 119.187 838.595C119.807 839.256 120.122 840.039 120.131 840.946C120.14 841.852 119.841 842.629 119.234 843.275C118.627 843.921 117.897 844.248 117.044 844.257C116.19 844.266 115.454 843.953 114.834 843.319C114.214 842.685 113.9 841.915 113.891 841.009ZM111.576 837.592L111.645 844.431L93.2462 844.617L93.1774 837.777L111.576 837.592ZM107.61 856.864C107.638 859.584 106.964 861.591 105.591 862.885C104.244 864.178 102.49 864.836 100.33 864.858C95.4238 864.907 92.9364 861.532 92.868 854.732C92.846 852.546 93.0342 850.05 93.4327 847.246L97.8413 848.082C97.6236 850.298 97.5202 851.952 97.5312 853.045C97.5476 854.672 97.7867 855.91 98.2486 856.758C98.7105 857.607 99.4881 858.026 100.581 858.015C100.955 858.011 101.341 857.941 101.739 857.803C102.165 857.692 102.43 857.516 102.534 857.275C102.586 857.168 102.637 856.874 102.685 856.394C102.734 855.94 102.755 855.393 102.749 854.753C102.729 852.78 102.549 850.848 102.21 848.958L102.408 848.756L116.104 850.258L116.24 863.778L110.92 863.831L110.874 855.271L107.47 854.865C107.557 855.585 107.604 856.251 107.61 856.864Z" fill="#ED0606"/>
<path d="M113.339 766.27L112.461 765.79L112.461 765.79L113.339 766.27ZM108.706 770.997L108.209 770.129L108.2 770.134L108.706 770.997ZM97.1552 771.953L96.7749 772.878L96.7749 772.878L97.1552 771.953ZM93.8904 769.506L94.6941 768.911L94.6868 768.901L93.8904 769.506ZM94.1404 762.543L93.5156 761.762L93.5091 761.767L93.5028 761.773L94.1404 762.543ZM98.0465 761.144L98.1382 762.139L101.422 761.837L98.5233 760.265L98.0465 761.144ZM96.4321 759.72L97.277 759.185L97.2711 759.176L97.265 759.166L96.4321 759.72ZM96.8625 754.795L96.1099 754.137L96.1099 754.137L96.8625 754.795ZM101.979 754.464L102.73 753.803L102.722 753.794L102.714 753.785L101.979 754.464ZM103.044 756.933L104.032 756.778L104.03 756.765L104.028 756.751L103.044 756.933ZM103.321 760.571L102.321 760.581L102.331 761.581L103.331 761.571L103.321 760.571ZM105.159 760.392L104.297 759.886L104.277 759.919L104.26 759.954L105.159 760.392ZM105.081 756.633L106.075 756.515L106.074 756.512L105.081 756.633ZM104.864 754.915L104.637 753.941L103.736 754.151L103.876 755.066L104.864 754.915ZM107.941 754.564L108.917 754.349L108.743 753.556L107.931 753.564L107.941 754.564ZM108.029 763.323L107.186 762.785L107.182 762.792L107.177 762.799L108.029 763.323ZM101.846 765.026L101.919 764.028L101.899 764.027L101.879 764.026L101.846 765.026ZM100.485 764.999L100.396 765.995L100.446 766L100.495 765.999L100.485 764.999ZM97.5222 768.669L97.9117 767.748L97.9019 767.744L97.5222 768.669ZM110.881 764.535L111.748 765.034L111.748 765.034L110.881 764.535ZM110.78 754.495L109.92 755.005L109.92 755.005L110.78 754.495ZM107.144 750.932L106.645 751.798L106.652 751.802L107.144 750.932ZM94.8773 752.295L94.1846 751.574L94.1791 751.579L94.8773 752.295ZM92.5821 762.719L92.82 763.69L93.7513 763.462L93.5625 762.522L92.5821 762.719ZM90.0282 763.344L89.0653 763.614L89.3263 764.546L90.2662 764.316L90.0282 763.344ZM90.9595 752.535L91.844 753.001L91.8488 752.992L90.9595 752.535ZM95.3534 747.93L94.8733 747.053L94.8661 747.057L94.859 747.061L95.3534 747.93ZM108.594 747.957L109.102 747.095L109.098 747.093L108.594 747.957ZM113.202 752.711L112.327 753.194L112.332 753.203L113.202 752.711ZM99.2012 760.612L98.2729 760.984L98.5272 761.619L99.2113 761.612L99.2012 760.612ZM101.121 760.593L101.131 761.593L102.131 761.583L102.121 760.583L101.121 760.593ZM100.897 758.235L100.145 758.893L100.17 758.922L100.197 758.949L100.897 758.235ZM99.1375 758.253L98.3717 757.609L98.3507 757.634L98.3315 757.661L99.1375 758.253ZM113.951 759.504C113.974 761.855 113.472 763.943 112.461 765.79L114.216 766.75C115.406 764.575 115.977 762.145 115.951 759.483L113.951 759.504ZM112.461 765.79C111.45 767.64 110.037 769.081 108.209 770.129L109.204 771.864C111.352 770.633 113.028 768.923 114.216 766.75L112.461 765.79ZM108.2 770.134C106.377 771.204 104.29 771.761 101.914 771.785L101.934 773.785C104.624 773.758 107.059 773.123 109.212 771.859L108.2 770.134ZM101.914 771.785C100.236 771.802 98.7834 771.542 97.5356 771.028L96.7749 772.878C98.312 773.51 100.038 773.804 101.934 773.785L101.914 771.785ZM97.5356 771.028C96.287 770.515 95.3549 769.803 94.6941 768.911L93.0868 770.101C93.994 771.326 95.2384 772.246 96.7749 772.878L97.5356 771.028ZM94.6868 768.901C94.0342 768.042 93.706 767.081 93.695 765.988L91.6951 766.008C91.7104 767.527 92.1791 768.906 93.094 770.111L94.6868 768.901ZM93.695 765.988C93.6824 764.737 94.0736 763.896 94.778 763.313L93.5028 761.773C92.25 762.81 91.6776 764.272 91.6951 766.008L93.695 765.988ZM94.7651 763.324C95.5512 762.695 96.6498 762.277 98.1382 762.139L97.9548 760.148C96.1927 760.31 94.6872 760.825 93.5156 761.762L94.7651 763.324ZM98.5233 760.265C97.9123 759.933 97.5178 759.565 97.277 759.185L95.5872 760.255C96.0509 760.987 96.7327 761.569 97.5697 762.023L98.5233 760.265ZM97.265 759.166C97.0478 758.84 96.8985 758.365 96.8915 757.675L94.8916 757.695C94.9013 758.658 95.1123 759.54 95.5992 760.273L97.265 759.166ZM96.8915 757.675C96.8817 756.703 97.1451 755.991 97.6151 755.454L96.1099 754.137C95.2618 755.106 94.8778 756.321 94.8916 757.695L96.8915 757.675ZM97.6151 755.454C98.0495 754.957 98.6843 754.657 99.6612 754.647L99.6411 752.647C98.218 752.662 96.9938 753.127 96.1099 754.137L97.6151 755.454ZM99.6612 754.647C100.529 754.638 100.988 754.864 101.245 755.142L102.714 753.785C101.946 752.954 100.853 752.635 99.6411 752.647L99.6612 754.647ZM101.229 755.125C101.584 755.527 101.884 756.161 102.061 757.115L104.028 756.751C103.81 755.576 103.4 754.563 102.73 753.803L101.229 755.125ZM102.056 757.088C102.219 758.123 102.308 759.286 102.321 760.581L104.321 760.56C104.307 759.188 104.212 757.927 104.032 756.778L102.056 757.088ZM103.331 761.571C103.926 761.565 104.407 761.546 104.757 761.512C104.928 761.496 105.103 761.472 105.258 761.434C105.333 761.415 105.443 761.383 105.557 761.326C105.639 761.285 105.903 761.148 106.058 760.83L104.26 759.954C104.337 759.797 104.438 759.697 104.505 759.641C104.574 759.584 104.635 759.551 104.67 759.534C104.706 759.516 104.735 759.505 104.749 759.501C104.756 759.498 104.762 759.496 104.766 759.495C104.769 759.494 104.772 759.494 104.772 759.494C104.772 759.493 104.768 759.495 104.757 759.497C104.747 759.499 104.733 759.501 104.715 759.504C104.677 759.509 104.628 759.516 104.564 759.522C104.301 759.547 103.89 759.565 103.311 759.571L103.331 761.571ZM106.022 760.898C106.174 760.639 106.218 760.347 106.239 760.165C106.264 759.948 106.272 759.695 106.27 759.421L104.27 759.441C104.272 759.673 104.264 759.834 104.252 759.937C104.25 759.961 104.247 759.98 104.245 759.993C104.242 760.006 104.241 760.011 104.241 760.01C104.241 760.01 104.244 759.999 104.251 759.98C104.258 759.962 104.272 759.928 104.297 759.886L106.022 760.898ZM106.27 759.421C106.26 758.501 106.195 757.532 106.075 756.515L104.088 756.75C104.201 757.704 104.261 758.601 104.27 759.441L106.27 759.421ZM106.074 756.512C105.959 755.562 105.884 754.969 105.853 754.763L103.876 755.066C103.901 755.233 103.971 755.786 104.089 756.753L106.074 756.512ZM105.091 755.889C105.97 755.684 106.923 755.574 107.951 755.564L107.931 753.564C106.772 753.575 105.674 753.7 104.637 753.941L105.091 755.889ZM106.964 754.779C107.43 756.892 107.662 758.684 107.677 760.167L109.677 760.147C109.66 758.483 109.402 756.547 108.917 754.349L106.964 754.779ZM107.677 760.167C107.691 761.507 107.478 762.329 107.186 762.785L108.871 763.862C109.473 762.922 109.692 761.632 109.677 760.147L107.677 760.167ZM107.177 762.799C106.841 763.346 106.444 763.645 105.989 763.785L106.577 765.697C107.558 765.395 108.325 764.75 108.88 763.848L107.177 762.799ZM105.989 763.785C105.393 763.968 104.604 764.078 103.596 764.088L103.617 766.088C104.742 766.077 105.737 765.955 106.577 765.697L105.989 763.785ZM103.596 764.088C103.096 764.093 102.537 764.074 101.919 764.028L101.773 766.023C102.436 766.071 103.051 766.094 103.617 766.088L103.596 764.088ZM101.879 764.026C101.263 764.006 100.792 763.996 100.475 763.999L100.495 765.999C100.766 765.997 101.201 766.005 101.812 766.025L101.879 764.026ZM100.575 764.003C99.7461 763.929 98.9655 763.895 98.2343 763.902L98.2544 765.902C98.9097 765.895 99.6232 765.926 100.396 765.995L100.575 764.003ZM98.2343 763.902C97.312 763.911 96.454 764.055 95.7994 764.463C95.0649 764.92 94.6916 765.646 94.7002 766.498L96.7001 766.477C96.6989 766.357 96.7221 766.299 96.7354 766.275C96.7476 766.252 96.7752 766.211 96.8573 766.16C97.0507 766.039 97.4701 765.91 98.2544 765.902L98.2343 763.902ZM94.7002 766.498C94.7073 767.205 94.9416 767.851 95.3954 768.394C95.835 768.92 96.4431 769.307 97.1425 769.594L97.9019 767.744C97.3963 767.537 97.0982 767.313 96.9304 767.112C96.7769 766.928 96.7026 766.73 96.7001 766.477L94.7002 766.498ZM97.1327 769.59C98.519 770.177 100.117 770.443 101.9 770.425L101.88 768.425C100.303 768.441 98.9894 768.204 97.9117 767.748L97.1327 769.59ZM101.9 770.425C104.047 770.404 105.996 769.925 107.722 768.966L106.751 767.217C105.349 767.996 103.733 768.407 101.88 768.425L101.9 770.425ZM107.722 768.966C109.44 768.011 110.789 766.698 111.748 765.034L110.015 764.036C109.243 765.375 108.163 766.433 106.751 767.217L107.722 768.966ZM111.748 765.034C112.707 763.367 113.171 761.519 113.151 759.512L111.151 759.532C111.168 761.204 110.785 762.698 110.015 764.036L111.748 765.034ZM113.151 759.512C113.131 757.504 112.63 755.655 111.641 753.985L109.92 755.005C110.721 756.357 111.134 757.859 111.151 759.532L113.151 759.512ZM111.641 753.985C110.656 752.324 109.317 751.012 107.636 750.061L106.652 751.802C108.029 752.581 109.114 753.644 109.92 755.005L111.641 753.985ZM107.643 750.065C105.977 749.105 104.128 748.642 102.121 748.662L102.141 750.662C103.814 750.645 105.307 751.028 106.645 751.798L107.643 750.065ZM102.121 748.662C98.8858 748.695 96.2032 749.635 94.1846 751.574L95.5699 753.016C97.1435 751.505 99.2968 750.691 102.141 750.662L102.121 748.662ZM94.1791 751.579C92.1439 753.564 91.1971 756.274 91.2303 759.572L93.2302 759.552C93.2012 756.664 94.019 754.529 95.5755 753.011L94.1791 751.579ZM91.2303 759.572C91.241 760.63 91.3666 761.746 91.6017 762.916L93.5625 762.522C93.3484 761.456 93.2394 760.467 93.2302 759.552L91.2303 759.572ZM92.3441 761.747L89.7903 762.373L90.2662 764.316L92.82 763.69L92.3441 761.747ZM90.9912 763.075C90.6213 761.754 90.4405 760.592 90.4304 759.58L88.4305 759.6C88.4428 760.829 88.6606 762.169 89.0653 763.614L90.9912 763.075ZM90.4304 759.58C90.4043 756.991 90.8895 754.81 91.8439 753.001L90.0751 752.068C88.936 754.227 88.4018 756.749 88.4305 759.6L90.4304 759.58ZM91.8488 752.992C92.7815 751.178 94.1102 749.788 95.8478 748.799L94.859 747.061C92.7782 748.244 91.1776 749.924 90.0702 752.077L91.8488 752.992ZM95.8335 748.807C97.6038 747.838 99.6855 747.326 102.107 747.302L102.087 745.302C99.3895 745.329 96.9751 745.903 94.8733 747.053L95.8335 748.807ZM102.107 747.302C104.34 747.28 106.326 747.791 108.09 748.821L109.098 747.093C107 745.868 104.654 745.276 102.087 745.302L102.107 747.302ZM108.087 748.818C109.889 749.88 111.299 751.333 112.327 753.194L114.078 752.227C112.879 750.057 111.217 748.341 109.102 747.095L108.087 748.818ZM112.332 753.203C113.382 755.059 113.927 757.152 113.951 759.504L115.951 759.483C115.924 756.822 115.303 754.393 114.073 752.218L112.332 753.203ZM97.9068 759.185C97.9129 759.798 98.0387 760.399 98.2729 760.984L100.13 760.24C99.9807 759.869 99.9102 759.512 99.9067 759.165L97.9068 759.185ZM99.2113 761.612L101.131 761.593L101.111 759.593L99.1911 759.612L99.2113 761.612ZM102.121 760.583L102.119 760.383L100.119 760.403L100.121 760.603L102.121 760.583ZM102.119 760.383C102.112 759.719 102.09 759.176 102.049 758.771C102.028 758.571 102 758.376 101.958 758.206C101.937 758.121 101.908 758.02 101.864 757.918C101.825 757.827 101.747 757.667 101.597 757.521L100.197 758.949C100.081 758.835 100.035 758.727 100.026 758.706C100.012 758.673 100.011 758.661 100.016 758.682C100.026 758.724 100.043 758.816 100.059 758.976C100.091 759.289 100.113 759.76 100.119 760.403L102.119 760.383ZM101.65 757.576C101.193 757.054 100.519 756.959 100.005 756.964L100.025 758.964C100.096 758.963 100.15 758.966 100.191 758.971C100.232 758.976 100.254 758.982 100.262 758.984C100.276 758.988 100.214 758.972 100.145 758.893L101.65 757.576ZM100.005 756.964C99.4902 756.969 98.8179 757.078 98.3717 757.609L99.9032 758.896C99.8359 758.976 99.7742 758.994 99.7881 758.989C99.7954 758.987 99.8174 758.98 99.8583 758.975C99.899 758.969 99.9537 758.964 100.025 758.964L100.005 756.964ZM98.3315 757.661C97.9957 758.118 97.9016 758.671 97.9068 759.185L99.9067 759.165C99.9038 758.878 99.9635 758.817 99.9434 758.844L98.3315 757.661ZM117.016 793.782L117.026 794.782L118.067 794.771L118.015 793.731L117.016 793.782ZM92.7371 794.026L91.7372 794.036L91.7472 795.036L92.7472 795.026L92.7371 794.026ZM92.6803 788.386L92.4916 787.404L91.672 787.562L91.6804 788.396L92.6803 788.386ZM95.7546 787.795L95.9433 788.777L98.84 788.22L96.2019 786.901L95.7546 787.795ZM93.2509 785.46L92.3947 785.977L92.3947 785.977L93.2509 785.46ZM94.4851 776.927L93.8426 776.161L93.8346 776.168L94.4851 776.927ZM106.794 775.764L106.462 776.707L106.462 776.707L106.794 775.764ZM109.973 777.612L110.716 776.943L110.713 776.94L109.973 777.612ZM111.001 780.361L111.981 780.166L111.981 780.163L111.001 780.361ZM111.188 787.08L110.203 786.909L109.984 788.17L111.261 788.077L111.188 787.08ZM116.667 786.905L117.665 786.854L117.617 785.895L116.657 785.905L116.667 786.905ZM98.068 787.132L97.116 787.438L97.3414 788.139L98.0781 788.132L98.068 787.132ZM106.748 787.045L106.758 788.045L107.629 788.036L107.74 787.171L106.748 787.045ZM106.667 782.965L107.509 782.427L107.49 782.397L107.469 782.369L106.667 782.965ZM104.819 782.264L104.991 781.279L104.98 781.277L104.969 781.275L104.819 782.264ZM98.4645 782.808L97.7881 782.071L97.7782 782.08L97.7685 782.09L98.4645 782.808ZM117.006 792.782L92.727 793.026L92.7472 795.026L117.026 794.782L117.006 792.782ZM93.737 794.016L93.6803 788.376L91.6804 788.396L91.7372 794.036L93.737 794.016ZM92.8691 789.368L95.9433 788.777L95.5658 786.813L92.4916 787.404L92.8691 789.368ZM96.2019 786.901C95.3317 786.466 94.6365 785.821 94.1071 784.944L92.3947 785.977C93.1129 787.167 94.0868 788.079 95.3072 788.69L96.2019 786.901ZM94.1071 784.944C93.5832 784.075 93.307 783.083 93.2955 781.94L91.2956 781.96C91.3104 783.43 91.6711 784.778 92.3947 785.977L94.1071 784.944ZM93.2955 781.94C93.2773 780.133 93.8961 778.749 95.1357 777.687L93.8346 776.168C92.1129 777.643 91.2719 779.607 91.2956 781.96L93.2955 781.94ZM95.1276 777.694C96.357 776.663 98.3214 776.049 101.196 776.02L101.176 774.02C98.0781 774.051 95.5751 774.709 93.8427 776.161L95.1276 777.694ZM101.196 776.02C103.394 775.998 105.137 776.24 106.462 776.707L107.126 774.82C105.507 774.25 103.511 773.997 101.176 774.02L101.196 776.02ZM106.462 776.707C107.864 777.201 108.745 777.747 109.232 778.284L110.713 776.94C109.906 776.05 108.668 775.364 107.126 774.82L106.462 776.707ZM109.23 778.281C109.312 778.372 109.445 778.582 109.596 778.986C109.743 779.379 109.886 779.899 110.02 780.56L111.981 780.163C111.834 779.44 111.666 778.81 111.47 778.286C111.278 777.774 111.038 777.3 110.716 776.943L109.23 778.281ZM110.02 780.557C110.292 781.924 110.428 783.112 110.438 784.127L112.438 784.107C112.427 782.936 112.271 781.62 111.981 780.166L110.02 780.557ZM110.438 784.127C110.447 785.022 110.37 785.949 110.203 786.909L112.173 787.251C112.359 786.18 112.449 785.132 112.438 784.107L110.438 784.127ZM111.261 788.077C111.899 788.031 112.394 787.996 112.744 787.973C112.919 787.961 113.056 787.952 113.157 787.947C113.207 787.944 113.247 787.942 113.276 787.94C113.309 787.939 113.319 787.939 113.317 787.939L113.297 785.939C113.123 785.94 112.368 785.992 111.116 786.083L111.261 788.077ZM113.317 787.939L116.677 787.905L116.657 785.905L113.297 785.939L113.317 787.939ZM115.668 786.956L116.017 793.832L118.015 793.731L117.665 786.854L115.668 786.956ZM96.6855 784.906C96.6939 785.738 96.8412 786.583 97.116 787.438L99.02 786.826C98.7992 786.139 98.6915 785.493 98.6854 784.886L96.6855 784.906ZM98.0781 788.132L106.758 788.045L106.737 786.045L98.0579 786.132L98.0781 788.132ZM107.74 787.171C107.845 786.344 107.892 785.444 107.882 784.473L105.882 784.493C105.891 785.389 105.848 786.197 105.756 786.918L107.74 787.171ZM107.882 784.473C107.877 784.051 107.856 783.676 107.812 783.363C107.773 783.085 107.699 782.724 107.509 782.427L105.824 783.504C105.788 783.447 105.785 783.419 105.795 783.457C105.805 783.489 105.818 783.548 105.832 783.644C105.859 783.837 105.878 784.115 105.882 784.493L107.882 784.473ZM107.469 782.369C107.187 781.99 106.758 781.774 106.398 781.637C106.007 781.488 105.53 781.372 104.991 781.279L104.648 783.249C105.124 783.332 105.463 783.421 105.688 783.506C105.942 783.603 105.929 783.65 105.864 783.561L107.469 782.369ZM104.969 781.275C103.924 781.116 102.829 781.044 101.687 781.055L101.707 783.055C102.752 783.045 103.739 783.111 104.669 783.252L104.969 781.275ZM101.687 781.055C100.831 781.064 100.077 781.134 99.4423 781.282C98.8188 781.427 98.23 781.665 97.7881 782.071L99.1409 783.544C99.2275 783.465 99.4417 783.335 99.8958 783.23C100.339 783.126 100.936 783.063 101.707 783.055L101.687 781.055ZM97.7685 782.09C97.0053 782.829 96.6745 783.81 96.6855 784.906L98.6854 784.886C98.6787 784.222 98.8673 783.81 99.1605 783.526L97.7685 782.09ZM111.354 815.521L111.364 816.521L112.364 816.511L112.354 815.511L111.354 815.521ZM92.9553 815.706L91.9553 815.716L91.9654 816.716L92.9653 816.706L92.9553 815.706ZM92.8993 810.147L92.65 809.178L91.8915 809.374L91.8994 810.157L92.8993 810.147ZM95.9715 809.356L96.2208 810.324L98.1433 809.829L96.6013 808.579L95.9715 809.356ZM92.7951 799.787L91.8403 799.49L91.8376 799.499L92.7951 799.787ZM93.9361 797.896L93.2951 797.128L93.2897 797.133L93.2843 797.137L93.9361 797.896ZM96.1304 797.314L96.0298 796.319L96.0186 796.32L96.0075 796.321L96.1304 797.314ZM111.168 797.002L112.168 796.992L112.158 795.992L111.158 796.002L111.168 797.002ZM111.237 803.842L111.247 804.842L112.247 804.832L112.237 803.832L111.237 803.842ZM98.4003 804.251L98.982 805.064L98.9897 805.059L98.4003 804.251ZM98.0164 805.855L97.0164 805.865L97.0168 805.896L97.019 805.927L98.0164 805.855ZM98.0628 806.495L99.0618 806.449L99.0612 806.435L99.0602 806.422L98.0628 806.495ZM98.6062 808.809L97.6815 809.19L97.9392 809.816L98.6162 809.809L98.6062 808.809ZM111.286 808.682L112.285 808.672L112.275 807.672L111.275 807.682L111.286 808.682ZM111.344 814.521L92.9452 814.706L92.9653 816.706L111.364 816.521L111.344 814.521ZM93.9552 815.696L93.8993 810.137L91.8994 810.157L91.9553 815.716L93.9552 815.696ZM93.1486 811.115L96.2208 810.324L95.7222 808.387L92.65 809.178L93.1486 811.115ZM96.6013 808.579C94.4599 806.843 93.4458 804.829 93.4224 802.501L91.4225 802.521C91.4528 805.526 92.8048 808.076 95.3417 810.133L96.6013 808.579ZM93.4224 802.501C93.4137 801.635 93.5257 800.828 93.7525 800.076L91.8376 799.499C91.5483 800.458 91.4119 801.468 91.4225 802.521L93.4224 802.501ZM93.7498 800.085C93.9694 799.38 94.2657 798.931 94.5879 798.654L93.2843 797.137C92.6019 797.724 92.1374 798.536 91.8403 799.49L93.7498 800.085ZM94.5771 798.663C94.5461 798.689 94.6215 798.624 94.9593 798.534C95.2639 798.454 95.6904 798.376 96.2533 798.306L96.0075 796.321C95.3984 796.397 94.8732 796.488 94.4464 796.601C94.0527 796.706 93.617 796.859 93.2951 797.128L94.5771 798.663ZM96.2309 798.308C97.356 798.195 99.1047 798.124 101.499 798.1L101.478 796.1C99.0725 796.124 97.2491 796.195 96.0298 796.319L96.2309 798.308ZM101.499 798.1L111.178 798.002L111.158 796.002L101.478 796.1L101.499 798.1ZM110.168 797.012L110.237 803.852L112.237 803.832L112.168 796.992L110.168 797.012ZM111.227 802.842L101.627 802.939L101.647 804.938L111.247 804.842L111.227 802.842ZM101.627 802.939C101.078 802.944 100.439 802.964 99.7107 802.998L99.8049 804.996C100.516 804.963 101.13 804.944 101.647 804.938L101.627 802.939ZM99.7107 802.998C99.3275 803.017 98.9841 803.049 98.695 803.103C98.4407 803.151 98.0936 803.237 97.8109 803.443L98.9897 805.059C98.9273 805.104 98.8897 805.113 98.9151 805.105C98.9352 805.098 98.9813 805.084 99.0623 805.069C99.2257 805.039 99.4684 805.012 99.8049 804.996L99.7107 802.998ZM97.8186 803.438C97.394 803.741 97.2177 804.208 97.1332 804.561C97.0423 804.941 97.0116 805.386 97.0164 805.865L99.0163 805.845C99.0123 805.444 99.0412 805.182 99.0783 805.027C99.0962 804.952 99.1102 804.927 99.1063 804.935C99.1018 804.943 99.0674 805.003 98.982 805.064L97.8186 803.438ZM97.019 805.927L97.0655 806.567L99.0602 806.422L99.0138 805.783L97.019 805.927ZM97.0639 806.54C97.1041 807.418 97.3162 808.303 97.6815 809.19L99.5308 808.428C99.2401 807.722 99.09 807.064 99.0618 806.449L97.0639 806.54ZM98.6162 809.809L111.296 809.682L111.275 807.682L98.5961 807.809L98.6162 809.809ZM110.286 808.692L110.354 815.531L112.354 815.511L112.285 808.672L110.286 808.692ZM97.6286 834.9L97.6387 835.9L98.6387 835.89L98.6286 834.89L97.6286 834.9ZM93.1489 834.945L92.1489 834.955L92.159 835.955L93.1589 835.945L93.1489 834.945ZM92.9826 818.426L92.9726 817.426L91.9726 817.436L91.9827 818.436L92.9826 818.426ZM97.5824 818.38L98.2602 817.644L97.9687 817.376L97.5723 817.38L97.5824 818.38ZM107.111 827.164L106.433 827.899L108.135 829.468L108.111 827.154L107.111 827.164ZM107.024 818.525L107.014 817.525L106.014 817.535L106.024 818.535L107.024 818.525ZM111.384 818.481L112.384 818.471L112.374 817.471L111.374 817.481L111.384 818.481ZM111.546 834.56L111.556 835.56L112.556 835.55L112.546 834.55L111.546 834.56ZM106.986 834.606L106.307 835.34L106.599 835.61L106.996 835.606L106.986 834.606ZM97.5377 825.861L98.217 825.127L96.5144 823.551L96.5377 825.871L97.5377 825.861ZM97.6186 833.9L93.1388 833.945L93.1589 835.945L97.6387 835.9L97.6186 833.9ZM94.1488 834.935L93.9826 818.416L91.9827 818.436L92.1489 834.955L94.1488 834.935ZM92.9927 819.426L97.5925 819.38L97.5723 817.38L92.9726 817.426L92.9927 819.426ZM96.9046 819.115L106.433 827.899L107.789 826.429L98.2602 817.644L96.9046 819.115ZM108.111 827.154L108.024 818.515L106.024 818.535L106.111 827.174L108.111 827.154ZM107.034 819.525L111.394 819.481L111.374 817.481L107.014 817.525L107.034 819.525ZM110.384 818.491L110.546 834.57L112.546 834.55L112.384 818.471L110.384 818.491ZM111.536 833.56L106.976 833.606L106.996 835.606L111.556 835.56L111.536 833.56ZM107.665 833.872L98.217 825.127L96.8584 826.594L106.307 835.34L107.665 833.872ZM96.5377 825.871L96.6287 834.91L98.6286 834.89L98.5376 825.85L96.5377 825.871ZM114.787 838.639L114.058 837.955L114.051 837.962L114.044 837.97L114.787 838.639ZM119.187 838.595L119.916 837.911L119.909 837.903L119.902 837.896L119.187 838.595ZM111.576 837.592L112.576 837.582L112.566 836.582L111.566 836.592L111.576 837.592ZM111.645 844.431L111.655 845.431L112.655 845.421L112.645 844.421L111.645 844.431ZM93.2462 844.617L92.2462 844.627L92.2563 845.627L93.2563 845.616L93.2462 844.617ZM93.1774 837.777L93.1673 836.777L92.1674 836.787L92.1774 837.787L93.1774 837.777ZM114.891 840.999C114.884 840.342 115.091 839.795 115.53 839.309L114.044 837.97C113.27 838.829 112.879 839.861 112.891 841.019L114.891 840.999ZM115.516 839.324C115.944 838.868 116.418 838.663 116.987 838.657L116.967 836.657C115.83 836.669 114.844 837.119 114.058 837.955L115.516 839.324ZM116.987 838.657C117.556 838.652 118.034 838.847 118.472 839.294L119.902 837.896C119.1 837.076 118.105 836.646 116.967 836.657L116.987 838.657ZM118.458 839.28C118.906 839.757 119.124 840.3 119.131 840.956L121.131 840.936C121.119 839.779 120.708 838.754 119.916 837.911L118.458 839.28ZM119.131 840.956C119.137 841.611 118.931 842.137 118.505 842.59L119.963 843.96C120.751 843.121 121.142 842.094 121.131 840.936L119.131 840.956ZM118.505 842.59C118.077 843.046 117.603 843.251 117.034 843.257L117.054 845.257C118.191 845.246 119.178 844.796 119.963 843.96L118.505 842.59ZM117.034 843.257C116.465 843.263 115.987 843.067 115.549 842.62L114.119 844.018C114.921 844.839 115.916 845.268 117.054 845.257L117.034 843.257ZM115.549 842.62C115.114 842.175 114.897 841.654 114.891 840.999L112.891 841.019C112.903 842.177 113.315 843.196 114.119 844.018L115.549 842.62ZM110.576 837.602L110.645 844.441L112.645 844.421L112.576 837.582L110.576 837.602ZM111.635 843.431L93.2361 843.617L93.2563 845.616L111.655 845.431L111.635 843.431ZM94.2461 844.606L94.1773 837.767L92.1774 837.787L92.2462 844.627L94.2461 844.606ZM93.1874 838.777L111.587 838.592L111.566 836.592L93.1673 836.777L93.1874 838.777ZM105.591 862.885L104.905 862.157L104.898 862.164L105.591 862.885ZM93.4327 847.246L93.6189 846.264L92.59 846.069L92.4426 847.106L93.4327 847.246ZM97.8413 848.082L98.8365 848.18L98.9259 847.27L98.0275 847.1L97.8413 848.082ZM98.2486 856.758L99.127 856.28L99.127 856.28L98.2486 856.758ZM101.739 857.803L101.487 856.836L101.45 856.845L101.414 856.858L101.739 857.803ZM102.534 857.275L101.635 856.837L101.625 856.857L101.616 856.878L102.534 857.275ZM102.685 856.394L101.691 856.287L101.69 856.293L102.685 856.394ZM102.21 848.958L101.496 848.258L101.135 848.627L101.226 849.135L102.21 848.958ZM102.408 848.756L102.517 847.762L102.034 847.709L101.694 848.056L102.408 848.756ZM116.104 850.258L117.104 850.248L117.095 849.361L116.213 849.264L116.104 850.258ZM116.24 863.778L116.25 864.778L117.25 864.768L117.24 863.768L116.24 863.778ZM110.92 863.831L109.92 863.837L109.926 864.841L110.931 864.831L110.92 863.831ZM110.874 855.271L111.874 855.266L111.87 854.383L110.993 854.278L110.874 855.271ZM107.47 854.865L107.588 853.872L106.324 853.722L106.477 854.986L107.47 854.865ZM106.61 856.874C106.636 859.44 106 861.126 104.905 862.157L106.276 863.613C107.929 862.056 108.639 859.728 108.61 856.854L106.61 856.874ZM104.898 862.164C103.763 863.253 102.268 863.838 100.32 863.858L100.34 865.858C102.712 865.834 104.724 865.104 106.283 863.606L104.898 862.164ZM100.32 863.858C98.1258 863.88 96.6087 863.153 95.5899 861.77C94.5268 860.328 93.9012 858.032 93.8679 854.722L91.868 854.742C91.9031 858.233 92.5555 861.024 93.9799 862.957C95.4484 864.949 97.6283 865.885 100.34 865.858L100.32 863.858ZM93.8679 854.722C93.8465 852.598 94.0294 850.155 94.4227 847.387L92.4426 847.106C92.039 849.946 91.8454 852.493 91.868 854.742L93.8679 854.722ZM93.2464 848.229L97.6551 849.065L98.0275 847.1L93.6189 846.264L93.2464 848.229ZM96.8461 847.984C96.6277 850.207 96.5197 851.906 96.5313 853.055L98.5312 853.035C98.5207 851.998 98.6195 850.388 98.8365 848.18L96.8461 847.984ZM96.5313 853.055C96.5483 854.748 96.7939 856.177 97.3703 857.236L99.127 856.28C98.7796 855.642 98.5469 854.596 98.5312 853.035L96.5313 853.055ZM97.3703 857.236C97.6849 857.815 98.1283 858.279 98.704 858.589C99.273 858.896 99.9156 859.022 100.591 859.015L100.571 857.015C100.154 857.019 99.8611 856.941 99.6525 856.829C99.4506 856.72 99.2742 856.551 99.127 856.28L97.3703 857.236ZM100.591 859.015C101.085 859.01 101.578 858.917 102.065 858.749L101.414 856.858C101.104 856.965 100.824 857.012 100.571 857.015L100.591 859.015ZM101.992 858.771C102.518 858.634 103.163 858.341 103.452 857.672L101.616 856.878C101.635 856.836 101.657 856.803 101.677 856.781C101.696 856.76 101.708 856.752 101.704 856.755C101.699 856.758 101.682 856.769 101.645 856.784C101.608 856.8 101.556 856.818 101.487 856.836L101.992 858.771ZM103.433 857.713C103.529 857.517 103.572 857.285 103.597 857.143C103.627 856.964 103.655 856.745 103.68 856.494L101.69 856.293C101.667 856.523 101.645 856.691 101.625 856.805C101.616 856.863 101.608 856.896 101.604 856.912C101.598 856.937 101.605 856.9 101.635 856.837L103.433 857.713ZM103.679 856.501C103.734 855.996 103.755 855.408 103.749 854.743L101.749 854.763C101.755 855.378 101.734 855.884 101.691 856.287L103.679 856.501ZM103.749 854.743C103.728 852.715 103.544 850.728 103.195 848.782L101.226 849.135C101.555 850.968 101.729 852.844 101.749 854.763L103.749 854.743ZM102.925 849.658L103.123 849.456L101.694 848.056L101.496 848.258L102.925 849.658ZM102.299 849.75L115.995 851.252L116.213 849.264L102.517 847.762L102.299 849.75ZM115.104 850.268L115.24 863.788L117.24 863.768L117.104 850.248L115.104 850.268ZM116.23 862.778L110.91 862.831L110.931 864.831L116.25 864.778L116.23 862.778ZM111.92 863.826L111.874 855.266L109.874 855.277L109.92 863.837L111.92 863.826ZM110.993 854.278L107.588 853.872L107.352 855.858L110.756 856.264L110.993 854.278ZM106.477 854.986C106.561 855.675 106.604 856.304 106.61 856.874L108.61 856.854C108.604 856.198 108.554 855.494 108.463 854.745L106.477 854.986Z" fill="black"/>
<rect x="83" y="629" width="39" height="40" rx="19.5" fill="#EA0505"/>
<rect x="83" y="681" width="39" height="40" rx="19.5" fill="#EA0505"/>
<path d="M86 701.5C86 692.663 93.1634 685.5 102 685.5V685.5C110.837 685.5 118 692.663 118 701.5V701.5C118 710.337 110.837 717.5 102 717.5V717.5C93.1634 717.5 86 710.337 86 701.5V701.5Z" fill="#202020"/>
<path d="M86 650C86 641.163 93.1634 634 102 634V634C110.837 634 118 641.163 118 650V650C118 658.837 110.837 666 102 666V666C93.1634 666 86 658.837 86 650V650Z" fill="#202020"/>
<rect x="0.5" y="0.5" width="187" height="1021.83" rx="4.5" stroke="#9747FF" stroke-dasharray="10 5"/>
<defs>
<linearGradient id="paint0_linear_3_50" x1="93.3745" y1="848.25" x2="92.9116" y2="926.249" gradientUnits="userSpaceOnUse">
<stop stop-color="#E80000"/>
<stop offset="1" stop-color="#BB0404" stop-opacity="0"/>
</linearGradient>
<linearGradient id="paint1_linear_3_50" x1="137.425" y1="774.211" x2="139.167" y2="1013.2" gradientUnits="userSpaceOnUse">
<stop stop-color="#1D0606"/>
<stop offset="0.354167" stop-color="#EB5F5F"/>
<stop offset="0.552083" stop-color="#E80000" stop-opacity="0.87"/>
<stop offset="0.828125" stop-color="#F40A0A"/>
<stop offset="1" stop-color="#E30909" stop-opacity="0.97"/>
</linearGradient>
<linearGradient id="paint2_linear_3_50" x1="137.425" y1="774.211" x2="139.167" y2="1013.2" gradientUnits="userSpaceOnUse">
<stop stop-color="#1D0606"/>
<stop offset="0.354167" stop-color="#EB5F5F"/>
<stop offset="0.552083" stop-color="#E80000" stop-opacity="0.87"/>
<stop offset="0.828125" stop-color="#F40A0A"/>
<stop offset="1" stop-color="#E30909" stop-opacity="0.97"/>
</linearGradient>
<linearGradient id="paint3_linear_3_50" x1="48.8846" y1="774.211" x2="50.6273" y2="1013.2" gradientUnits="userSpaceOnUse">
<stop stop-color="#1D0606"/>
<stop offset="0.354167" stop-color="#EB5F5F"/>
<stop offset="0.552083" stop-color="#E80000" stop-opacity="0.87"/>
<stop offset="0.828125" stop-color="#F40A0A"/>
<stop offset="1" stop-color="#E30909" stop-opacity="0.97"/>
</linearGradient>
<linearGradient id="paint4_linear_3_50" x1="48.8846" y1="774.211" x2="50.6273" y2="1013.2" gradientUnits="userSpaceOnUse">
<stop stop-color="#1D0606"/>
<stop offset="0.354167" stop-color="#EB5F5F"/>
<stop offset="0.552083" stop-color="#E80000" stop-opacity="0.87"/>
<stop offset="0.828125" stop-color="#F40A0A"/>
<stop offset="1" stop-color="#E30909" stop-opacity="0.97"/>
</linearGradient>
<linearGradient id="paint5_linear_3_50" x1="161.348" y1="528.416" x2="98.1325" y2="911.187" gradientUnits="userSpaceOnUse">
<stop stop-color="#070707"/>
<stop offset="1" stop-color="#212B2C"/>
</linearGradient>
</defs>
</svg>
